<?xml version="1.0" standalone="no"?>
<!DOCTYPE svg PUBLIC "-//W3C//DTD SVG 20010904//EN"
 "http://www.w3.org/TR/2001/REC-SVG-20010904/DTD/svg10.dtd">
<svg version="1.0" xmlns="http://www.w3.org/2000/svg"
 width="706.000000pt" height="706.000000pt" viewBox="0 0 706.000000 706.000000"
 preserveAspectRatio="xMidYMid meet">
<metadata>
Created by potrace 1.14, written by Peter Selinger 2001-2017
</metadata>
<g transform="translate(0.000000,706.000000) scale(0.100000,-0.100000)"
fill="#000000" stroke="none">
<path d="M1559 6293 c-1 -5 -2 -332 -3 -728 l-1 -720 -611 -515 c-337 -283
-628 -528 -647 -545 -20 -16 -95 -79 -167 -140 l-131 -110 29 -25 c16 -14 120
-102 233 -197 190 -159 422 -355 535 -450 224 -189 351 -296 479 -403 83 -69
152 -127 155 -130 3 -3 32 -28 65 -56 l60 -52 0 -726 c0 -720 0 -726 20 -727
27 0 2056 0 2075 0 9 1 -1 15 -25 35 -22 19 -105 89 -185 156 -80 67 -165 139
-190 160 -25 21 -95 80 -156 131 -350 294 -521 439 -540 455 -12 11 -43 37
-70 59 -26 22 -111 93 -188 159 -78 65 -163 137 -190 160 -28 22 -70 58 -95
80 -25 21 -55 46 -66 55 -86 71 -211 177 -215 181 -3 3 -72 62 -154 130 -82
69 -224 188 -315 265 -310 261 -796 670 -816 687 -11 9 -29 24 -40 33 -20 15
-19 15 15 47 20 18 62 56 94 83 33 28 64 55 70 60 6 6 65 55 131 110 66 55
208 174 315 265 108 91 218 183 244 205 27 22 54 45 60 50 11 10 174 148 225
190 13 11 56 47 95 80 39 33 98 83 131 110 33 28 71 60 85 71 70 60 249 212
365 308 144 121 179 151 341 287 60 52 132 112 158 134 27 22 58 48 70 58 25
22 34 29 156 132 52 44 104 87 115 97 83 69 563 474 575 484 12 12 -148 14
-1038 14 -579 0 -1053 -3 -1053 -7z m1421 -244 c0 -4 -19 -22 -42 -40 -23 -19
-145 -122 -272 -229 -127 -107 -287 -241 -356 -299 -237 -198 -305 -256 -310
-261 -17 -18 -189 -160 -194 -160 -7 0 -8 984 -2 991 7 7 1176 5 1176 -2z
m-1066 -4126 c56 -49 153 -131 216 -183 63 -52 130 -109 149 -126 59 -51 613
-517 659 -553 23 -19 42 -37 42 -40 0 -3 -265 -6 -590 -6 l-590 0 0 498 c0
273 3 497 6 497 3 0 52 -39 108 -87z"/>
<path d="M3999 6069 c-151 -127 -294 -248 -319 -269 -25 -21 -367 -309 -760
-640 -393 -331 -726 -611 -740 -623 -14 -12 -66 -56 -115 -97 -50 -42 -101
-85 -115 -97 -37 -31 -110 -93 -166 -139 -47 -41 -465 -392 -574 -484 -29 -25
-89 -76 -134 -114 -45 -38 -82 -70 -84 -71 -1 -1 33 -31 75 -66 43 -35 83 -68
89 -74 16 -14 74 -63 379 -320 149 -125 281 -236 295 -248 14 -12 50 -42 80
-67 30 -25 57 -47 60 -50 3 -3 34 -30 70 -60 35 -30 76 -65 90 -76 14 -12 126
-107 250 -211 321 -269 621 -521 650 -547 14 -11 82 -68 150 -125 69 -58 143
-121 165 -140 23 -20 63 -54 90 -76 27 -22 67 -56 90 -75 109 -93 169 -143
410 -345 143 -120 276 -233 296 -252 l37 -35 708 1 c390 0 727 0 749 0 l40 1
0 2765 0 2765 -745 0 -746 0 -275 -231z m1519 -2534 l-3 -2520 -575 0 -575 0
-130 110 c-72 61 -141 119 -154 130 -41 34 -105 88 -162 136 -29 26 -128 109
-219 185 -91 76 -167 141 -170 144 -3 3 -70 59 -150 125 -79 66 -152 127 -160
135 -9 8 -38 33 -64 55 -83 68 -259 216 -291 244 -16 14 -97 82 -180 151 -82
69 -161 135 -175 147 -62 54 -78 67 -119 101 -25 21 -61 51 -80 68 -20 17 -94
80 -166 139 -71 60 -135 114 -141 120 -15 13 -35 30 -174 145 -63 52 -119 100
-125 106 -8 8 -178 151 -325 272 -3 2 11 17 30 34 19 17 49 43 65 57 17 14
100 84 185 156 85 71 160 134 166 140 6 6 31 27 54 46 23 18 47 39 54 44 6 6
67 58 136 115 69 58 136 115 150 126 28 25 1008 850 1305 1099 105 88 201 169
215 181 28 25 244 207 275 232 32 27 149 126 155 132 3 3 30 25 60 50 54 44
74 61 116 97 20 17 55 18 598 18 l576 0 -2 -2520z"/>
</g>
</svg>
